# xmcd CD database file
#
# Track frame offsets:
#	150
#	17080
#	33104
#	49245
#	65857
#	84060
#	99652
#	117007
#	128854
#	146934
#	163103
#	181195
#	196923
#
# Disc length: 3017 seconds
#
# Revision: 0
# Processed by: cddbd v1.5.2PL0 Copyright (c) Steve Scherf et al.
# Submitted via: CDex 1.51
#
DISCID=ae0bc70d
DTITLE=Lianna Rose - Soak Up The World
DYEAR=2007
DGENRE=Country
TTITLE0=Higher Ground
TTITLE1=Don't Take the Girl
TTITLE2=Just Like a Rose
TTITLE3=Sugar On It
TTITLE4=New Guitar
TTITLE5=Ebony
TTITLE6=Smoking Gun
TTITLE7=Jack
TTITLE8=I Want My Tractor Back
TTITLE9=I Still Cry
TTITLE10=Angels
TTITLE11=Jenny
TTITLE12=Am I The Song
EXTD=YEAR: 2007
EXTT0=
EXTT1=
EXTT2=
EXTT3=
EXTT4=
EXTT5=
EXTT6=
EXTT7=
EXTT8=
EXTT9=
EXTT10=
EXTT11=
EXTT12=
PLAYORDER=
